<?xml version="1.0" standalone="no"?><!DOCTYPE svg PUBLIC "-//W3C//DTD SVG 1.1//EN" "http://www.w3.org/Graphics/SVG/1.1/DTD/svg11.dtd"><svg class="icon" width="200px" height="200.00px" viewBox="0 0 1024 1024" version="1.1" xmlns="http://www.w3.org/2000/svg"><path d="M853 171.4v564H538c-8.8 0-17.4 2.6-24.7 7.4l-3.7 2.4-162.7 106.6c-1.2 0.8-2.5 1.2-3.9 1.2v-83.5c0-18.8-15.2-34.1-34.1-34.1H173v-564h680m0-60H173c-33.1 0-60 26.9-60 60v564c0 33.1 26.9 60 60 60h110V893c0 11 9 20 20 20h54.2c4.4 0 8.7-1.5 12.2-4.2l173-113.4H853c33.1 0 60-26.9 60-60v-564c0-33.2-26.9-60-60-60z" fill="#808080" /><path d="M343 513.1h342v60H343zM343 333.6h342v60H343z" fill="#808080" /></svg>